<svg width="202" height="124" viewBox="0 0 202 124" fill="none" xmlns="http://www.w3.org/2000/svg">
<path d="M77.1501 38.4876L89.6381 34.43L115.394 113.698C116.514 117.147 114.627 120.851 111.179 121.971C107.73 123.092 104.027 121.204 102.906 117.756L77.1501 38.4876Z" fill="#B8B8B8"/>
<path d="M125.598 38.4876L138.086 34.43L163.643 113.087C164.764 116.535 162.876 120.239 159.428 121.359C155.98 122.48 152.276 120.593 151.155 117.144L125.598 38.4876Z" fill="#B8B8B8"/>
<path d="M137.957 34.5328L125.598 38.4877L103.651 112.903C102.659 116.267 104.525 119.809 107.86 120.893C111.39 122.04 115.16 119.99 116.117 116.404L137.957 34.5328Z" fill="#B8B8B8"/>
<path d="M201.236 3.88204L184.74 13.9982L152.341 113.712C151.223 117.153 153.106 120.849 156.546 121.967C159.998 123.088 163.704 121.189 164.81 117.733L201.236 3.88204Z" fill="#B8B8B8"/>
<path d="M0 33.7954H89.2813V48.0804H19.6419L0 33.7954Z" fill="#B8B8B8"/>
<rect x="35.7122" y="48.0804" width="7.1425" height="73.2107" fill="white"/>
<rect x="44.6406" y="48.0804" width="5.35688" height="73.2107" fill="white" fill-opacity="0.8"/>
<rect x="51.7831" y="48.0804" width="5.35688" height="73.2107" fill="white" fill-opacity="0.6"/>
<rect x="58.9261" y="48.0804" width="3.57125" height="73.2107" fill="white" fill-opacity="0.4"/>
<rect x="42.8552" y="64.151" width="1.78563" height="3.57125" fill="white"/>
<rect x="57.14" y="69.5078" width="1.78563" height="3.57125" fill="white"/>
<rect x="49.9977" y="78.436" width="1.78563" height="3.57125" fill="white"/>
<rect x="57.14" y="90.9354" width="1.78563" height="3.57125" fill="white"/>
<rect x="57.14" y="105.22" width="1.78563" height="3.57125" fill="white"/>
<rect x="42.8552" y="103.435" width="1.78563" height="3.57125" fill="white"/>
</svg>
